<svg width="98" height="98" viewBox="0 0 98 98" fill="none" xmlns="http://www.w3.org/2000/svg">
<path fill-rule="evenodd" clip-rule="evenodd" d="M60.1555 16.333C60.4917 16.3332 60.8227 16.4164 61.119 16.5752C61.4154 16.7341 61.6679 16.9637 61.8542 17.2436L69.4165 28.583H85.7498C86.8328 28.583 87.8714 29.0132 88.6372 29.779C89.403 30.5448 89.8332 31.5834 89.8332 32.6663V77.583C89.8332 78.666 89.403 79.7046 88.6372 80.4704C87.8714 81.2361 86.8328 81.6663 85.7498 81.6663H12.2498C11.1669 81.6663 10.1283 81.2361 9.36248 80.4704C8.59671 79.7046 8.1665 78.666 8.1665 77.583V32.6663C8.1665 31.5834 8.59671 30.5448 9.36248 29.779C10.1283 29.0132 11.1669 28.583 12.2498 28.583H28.5832L36.1455 17.2436C36.3318 16.9637 36.5843 16.7341 36.8806 16.5752C37.177 16.4164 37.5079 16.3332 37.8442 16.333H60.1555ZM48.9998 67.3747C52.7902 67.3747 56.4254 65.869 59.1056 63.1887C61.7858 60.5085 63.2915 56.8734 63.2915 53.083C63.2915 49.2926 61.7858 45.6575 59.1056 42.9773C56.4254 40.2971 52.7902 38.7913 48.9998 38.7913C45.2094 38.7913 41.5743 40.2971 38.8941 42.9773C36.2139 45.6575 34.7082 49.2926 34.7082 53.083C34.7082 56.8734 36.2139 60.5085 38.8941 63.1887C41.5743 65.869 45.2094 67.3747 48.9998 67.3747Z" fill="black"/>
</svg>
